<svg xmlns="http://www.w3.org/2000/svg" viewBox="0 0 230 240"><defs>
 <linearGradient id="armor" x1="0" y1="0" x2="1" y2="1"><stop stop-color="#FFE66D"/><stop offset=".28" stop-color="#FFAA24"/><stop offset="1" stop-color="#E85026"/></linearGradient>
 <linearGradient id="armor2" x1="0" y1="0" x2="1" y2="1"><stop stop-color="#FFAA24"/><stop offset="1" stop-color="#E85026"/></linearGradient>
 <linearGradient id="visor" x1="0" y1="0" x2="1" y2="0"><stop stop-color="#FFF5B8"/><stop offset="1" stop-color="#FFE66D"/></linearGradient>
 <linearGradient id="gun" x1="0" y1="0" x2="1" y2="1"><stop stop-color="#6A66B8"/><stop offset="1" stop-color="#28234D"/></linearGradient>
 <linearGradient id="weapon" x1="0" y1="0" x2="1" y2="0"><stop stop-color="#FFFFFF"/><stop offset=".3" stop-color="#FFD52A"/><stop offset="1" stop-color="#FFAA24"/></linearGradient>
 <linearGradient id="blade" x1="0" y1="0" x2="1" y2="0"><stop stop-color="#FFFFFF"/><stop offset=".35" stop-color="#FFE66D"/><stop offset="1" stop-color="#FFAA24"/></linearGradient>
 <radialGradient id="portraitBg" cx="50%" cy="35%"><stop stop-color="#FFAA24" stop-opacity=".52"/><stop offset=".62" stop-color="#28234D"/><stop offset="1" stop-color="#09102E"/></radialGradient>
</defs><g stroke="#28234D" stroke-width="8" stroke-linejoin="round" stroke-linecap="round">
<ellipse cx="110" cy="216" rx="76" ry="17" fill="#100C33" opacity=".4" stroke="none"/>
<path d="M42 104 L77 84 L94 104 L88 161 L55 178 L29 151 Z" fill="url(#armor2)"/><path d="M178 101 L145 83 L127 105 L132 163 L166 177 L194 149 Z" fill="url(#armor2)"/>
<path d="M57 147 L85 139 L104 173 L89 215 L52 212 L41 180 Z" fill="url(#armor)"/><path d="M162 147 L134 138 L117 175 L133 215 L169 212 L181 179 Z" fill="url(#armor)"/>
<path d="M73 87 L102 70 L137 82 L157 121 L149 166 L119 185 L80 174 L62 134 Z" fill="url(#armor)"/>
<path d="M86 91 L113 82 L141 94 L148 127 L130 151 L93 150 L75 129 Z" fill="#3A2448"/>
<path d="M86 51 L109 38 L136 50 L147 78 L135 104 L101 105 L79 85 Z" fill="url(#armor)"/>
<path d="M93 61 L123 54 L137 66 L135 86 L119 95 L95 87 Z" fill="#211C3D"/>
<rect x="99" y="67" width="32" height="13" rx="3" fill="url(#visor)" stroke="none"/>
<g transform="translate(145 95)"><circle cx="32" cy="31" r="32" fill="url(#armor)"/><circle cx="32" cy="31" r="20" fill="#28234D"/><circle cx="32" cy="31" r="11" fill="url(#weapon)" stroke="none"/><path d="M50 15 C74 4 90 21 87 37 C83 56 61 57 50 48" fill="none" stroke="#FFD52A" stroke-width="7"/></g>
<path d="M39 118 L13 127 L20 159 L47 154 Z" fill="#2E2852"/>
</g></svg>